<svg xmlns="http://www.w3.org/2000/svg" xmlns:xlink="http://www.w3.org/1999/xlink" fill="none" version="1.1" width="51.72265625" height="51.72216796875" viewBox="0 0 51.72265625 51.72216796875"><g><g style="opacity:0;"><path d="M51.7222,0C51.7222,0,0,0,0,0C0,0,0,51.7222,0,51.7222C0,51.7222,51.7222,51.7222,51.7222,51.7222C51.7222,51.7222,51.7222,0,51.7222,0C51.7222,0,51.7222,0,51.7222,0Z" fill="#FFFFFF" fill-opacity="1"/></g><g><path d="M25.8610109375,1.6162109375C39.2510109375,1.6162109375,50.1057109375,12.4710109375,50.1057109375,25.8610109375C50.1057109375,39.2510109375,39.2510109375,50.1057109375,25.8610109375,50.1057109375C12.4710109375,50.1057109375,1.6162109375,39.2510109375,1.6162109375,25.8610109375C1.6162109375,12.4710109375,12.4710109375,1.6162109375,25.8610109375,1.6162109375C25.8610109375,1.6162109375,25.8610109375,1.6162109375,25.8610109375,1.6162109375Z" fill-rule="evenodd" fill="#E8FFEA" fill-opacity="1"/></g><g transform="matrix(0.7660443782806396,0.6427876949310303,-0.6427875757217407,0.7660444378852844,18.84064664307516,-16.816984112665523)"><path d="M34.1442409375,17.473633013156C34.1442409375,17.473633013156,35.7605609375,17.473633013156,35.7605609375,17.473633013156C36.6532209375,17.4731928895,37.3768809375,18.1968428125,37.3768809375,19.0895128125C37.3768809375,19.0896628125,37.3768709375,19.0898028125,37.376430937500004,19.0899528125C37.376430937500004,19.0899528125,37.3718609375,35.9017328125,37.3718609375,35.9017328125C37.3711709375,36.794132812499996,36.6475909375,37.5176328125,35.7551009375,37.518032812499996C35.7551009375,37.518032812499996,32.5224609375,37.518032812499996,32.5224609375,37.518032812499996C32.5224609375,37.518032812499996,32.5274783175,19.0899528125,32.5274783175,19.0899528125C32.5281615375,18.1974558125,33.2517409375,17.4740731365,34.1442409375,17.473633013156C34.1442409375,17.473633013156,34.1442409375,17.473633013156,34.1442409375,17.473633013156Z" fill-rule="evenodd" fill="#00B42A" fill-opacity="1"/></g><g transform="matrix(0.6691305637359619,-0.7431448698043823,0.7431447505950928,0.6691307425498962,-16.23422529536765,20.05783146075555)"><path d="M16.024533125,28.26025390625C16.024533125,28.26025390625,17.645263125,28.26025390625,17.645263125,28.26025390625C18.523853125,28.26025390625,19.241533125,28.96205990625,19.261183125,29.84042390625C19.261183125,29.84042390625,19.485523125,39.86865390625,19.485523125,39.86865390625C19.485523125,39.86865390625,16.251853125,39.996853906249996,16.251853125,39.996853906249996C15.359884125,40.03235390625,14.608132125,39.337853906250004,14.572765125,38.44595390625C14.572328125,38.43495390625,14.572003125,38.42385390625,14.571792125,38.41285390625C14.571792125,38.41285390625,14.408506993,29.90759390625,14.408506993,29.90759390625C14.391372725,29.01509190625,15.101000125,28.27768580625,15.993503125,28.26055140425C16.003843125,28.26035292045,16.014183125,28.26025390625,16.024533125,28.26025390625C16.024533125,28.26025390625,16.024533125,28.26025390625,16.024533125,28.26025390625Z" fill-rule="evenodd" fill="#00B42A" fill-opacity="1"/></g></g></svg>